<svg viewBox="0 0 120 120" xmlns="http://www.w3.org/2000/svg">
  <defs>
    <linearGradient id="vectorGrad" x1="0%" y1="100%" x2="100%" y2="0%">
      <stop offset="0%" style="stop-color:#3b82f6;stop-opacity:1" />
      <stop offset="100%" style="stop-color:#60a5fa;stop-opacity:1" />
    </linearGradient>
  </defs>
  
  <!-- T made from data points and vector lines -->
  <!-- Horizontal top bar with data points -->
  <circle cx="25" cy="30" r="3.5" fill="url(#vectorGrad)"/>
  <circle cx="40" cy="28" r="3" fill="url(#vectorGrad)"/>
  <circle cx="55" cy="27" r="3" fill="url(#vectorGrad)"/>
  <circle cx="60" cy="25" r="4" fill="url(#vectorGrad)"/>
  <circle cx="65" cy="27" r="3" fill="url(#vectorGrad)"/>
  <circle cx="80" cy="28" r="3" fill="url(#vectorGrad)"/>
  <circle cx="95" cy="30" r="3.5" fill="url(#vectorGrad)"/>
  
  <!-- Lines connecting top bar -->
  <line x1="25" y1="30" x2="40" y2="28" stroke="url(#vectorGrad)" stroke-width="1.5" opacity="0.6"/>
  <line x1="40" y1="28" x2="55" y2="27" stroke="url(#vectorGrad)" stroke-width="1.5" opacity="0.6"/>
  <line x1="55" y1="27" x2="60" y2="25" stroke="url(#vectorGrad)" stroke-width="1.5" opacity="0.6"/>
  <line x1="60" y1="25" x2="65" y2="27" stroke="url(#vectorGrad)" stroke-width="1.5" opacity="0.6"/>
  <line x1="65" y1="27" x2="80" y2="28" stroke="url(#vectorGrad)" stroke-width="1.5" opacity="0.6"/>
  <line x1="80" y1="28" x2="95" y2="30" stroke="url(#vectorGrad)" stroke-width="1.5" opacity="0.6"/>
  
  <!-- Vertical stem with data points -->
  <circle cx="60" cy="50" r="3" fill="url(#vectorGrad)"/>
  <circle cx="60" cy="68" r="3" fill="url(#vectorGrad)"/>
  <circle cx="60" cy="86" r="3.5" fill="url(#vectorGrad)"/>
  
  <!-- Lines connecting stem -->
  <line x1="60" y1="25" x2="60" y2="50" stroke="url(#vectorGrad)" stroke-width="1.5" opacity="0.6"/>
  <line x1="60" y1="50" x2="60" y2="68" stroke="url(#vectorGrad)" stroke-width="1.5" opacity="0.6"/>
  <line x1="60" y1="68" x2="60" y2="86" stroke="url(#vectorGrad)" stroke-width="1.5" opacity="0.6"/>
</svg>